<svg width="74" height="72" viewBox="0 0 74 72" fill="none" xmlns="http://www.w3.org/2000/svg">
<rect width="74" height="72" fill="#1E1E1E"/>
<g id="blog landing" clip-path="url(#clip0_754_1513)">
<rect width="1440" height="5604" transform="translate(-337 -5210)" fill="#F6F4F0"/>
<g id="Group 112">
<g id="Frame 102">
<rect width="1440" height="932" transform="translate(-337 -538)" fill="#282832"/>
</g>
<g id="Group 110">
<g id="Group">
<g id="Group_2">
<g id="Group_3">
<path id="Vector" d="M40.2171 66.1269C39.4869 65.9829 38.3863 63.9771 39.1577 59.9966C39.3737 58.9063 40.6903 53.1977 46.1211 47.304C46.8 46.5634 47.5097 45.864 48.2606 45.1851L46.2651 55.4297C44.6503 63.7509 41.4206 66.1371 40.32 66.1371C40.2891 66.1269 40.248 66.1269 40.2171 66.1269ZM60.4286 13.3097C61.1589 9.53486 63.2263 7.15886 64.7589 6.27429C65.1291 6.05829 65.4069 5.96571 65.6331 5.91429C65.9109 5.85257 66.1886 6.00686 66.2709 6.28457C66.4354 6.84 66.5486 7.95086 66.1783 9.85371C65.7463 12.0651 64.4606 14.8217 59.6366 17.3726L60.4286 13.3097ZM65.8389 0C61.3954 0.133714 56.1189 4.73143 54.6686 12.1886L53.1566 19.944C50.1017 20.88 46.3166 21.7337 41.6571 22.4743C40.392 22.68 39.3943 23.688 39.1989 24.9634C37.5223 36.072 33.7989 40.9783 31.7211 42.1097C31.4537 42.2537 31.1143 42.1406 31.0011 41.8526C30.3017 40.0731 29.8183 35.208 31.2274 27.9463C31.2686 27.7611 31.2789 27.5657 31.2789 27.3806C31.2789 25.9406 30.2091 24.6651 28.6971 24.4697C27.1131 24.2743 25.7246 25.488 25.416 27.0514C23.7806 35.3314 19.9543 41.4514 17.6606 43.4674C17.352 43.7349 16.8583 43.5291 16.8274 43.128C16.6937 41.5646 16.8274 38.376 18.0823 31.8754C18.2469 31.0114 18.0206 30.1269 17.4651 29.448C16.9097 28.7691 16.0766 28.3783 15.2023 28.3783C14.4309 28.3783 10.1417 28.6663 1.35771 34.2514C0.514286 34.776 0.0411429 35.6606 0 36.5863V36.8537C0.0308571 37.5017 0.267429 38.1394 0.750857 38.6846C1.71771 39.7749 3.39429 39.8983 4.62857 39.1166C7.53943 37.2754 9.82286 36.1234 11.5097 35.4137C10.3989 42.7886 10.8617 46.5326 12.9806 48.6C14.2354 49.824 15.9634 50.2766 17.8766 49.8754C20.5097 49.3097 23.0914 46.7589 25.3131 43.2617C25.704 44.496 26.2697 45.5863 27.0309 46.4297C28.224 47.7463 29.808 48.3737 31.536 48.2091C36.0514 47.7874 42.048 42.1817 44.6606 27.9154C47.2834 27.4629 49.6903 26.9486 51.912 26.3829L49.9474 36.5143C36.5657 44.9794 33.7577 57.0549 33.3977 58.8754C31.8651 66.7543 35.28 71.1463 39.096 71.8869C39.4457 71.9589 39.7954 71.9897 40.1451 72H40.5463C45 71.8663 49.9474 67.248 52.0251 56.5406L55.1931 40.2583C59.8423 37.6971 65.304 35.9177 71.5269 34.9303C72.9257 34.704 73.9337 33.5314 73.9954 32.1737V31.896C73.9852 31.6389 73.9337 31.3714 73.8514 31.104C73.3989 29.7154 71.9074 28.9234 70.4674 29.16C65.1189 30.0137 60.5314 31.3714 56.6023 33.048L58.2789 24.408C66.4457 21.2914 70.7863 16.9406 71.9486 10.9851C73.3166 3.90857 70.3954 0.730286 67.1966 0.102857C66.888 0.0411429 66.5589 0.0102857 66.2297 0H65.8389Z" fill="#00D2D2"/>
<g id="Clip path group">
<mask id="mask0_754_1513" style="mask-type:luminance" maskUnits="userSpaceOnUse" x="0" y="0" width="74" height="72">
<g id="SVGID_00000109744078509455218120000016861274680907716258_">
<path id="Vector_2" d="M40.2171 66.1269C39.4869 65.9829 38.3863 63.9771 39.1577 59.9966C39.3737 58.9063 40.6903 53.1977 46.1211 47.304C46.8 46.5634 47.5097 45.864 48.2606 45.1851L46.2651 55.4297C44.6503 63.7509 41.4206 66.1371 40.32 66.1371C40.2891 66.1269 40.248 66.1269 40.2171 66.1269ZM60.4286 13.3097C61.1589 9.53486 63.2263 7.15886 64.7589 6.27429C65.1291 6.05829 65.4069 5.96571 65.6331 5.91429C65.9109 5.85257 66.1886 6.00686 66.2709 6.28457C66.4354 6.84 66.5486 7.95086 66.1783 9.85371C65.7463 12.0651 64.4606 14.8217 59.6366 17.3726L60.4286 13.3097ZM65.8389 0C61.3954 0.133714 56.1189 4.73143 54.6686 12.1886L53.1566 19.944C50.1017 20.88 46.3166 21.7337 41.6571 22.4743C40.392 22.68 39.3943 23.688 39.1989 24.9634C37.5223 36.072 33.7989 40.9783 31.7211 42.1097C31.4537 42.2537 31.1143 42.1406 31.0011 41.8526C30.3017 40.0731 29.8183 35.208 31.2274 27.9463C31.2686 27.7611 31.2789 27.5657 31.2789 27.3806C31.2789 25.9406 30.2091 24.6651 28.6971 24.4697C27.1131 24.2743 25.7246 25.488 25.416 27.0514C23.7806 35.3314 19.9543 41.4514 17.6606 43.4674C17.352 43.7349 16.8583 43.5291 16.8274 43.128C16.6937 41.5646 16.8274 38.376 18.0823 31.8754C18.2469 31.0114 18.0206 30.1269 17.4651 29.448C16.9097 28.7691 16.0766 28.3783 15.2023 28.3783C14.4309 28.3783 10.1417 28.6663 1.35771 34.2514C0.514286 34.776 0.0411429 35.6606 0 36.5863V36.8537C0.0308571 37.5017 0.267429 38.1394 0.750857 38.6846C1.71771 39.7749 3.39429 39.8983 4.62857 39.1166C7.53943 37.2754 9.82286 36.1234 11.5097 35.4137C10.3989 42.7886 10.8617 46.5326 12.9806 48.6C14.2354 49.824 15.9634 50.2766 17.8766 49.8754C20.5097 49.3097 23.0914 46.7589 25.3131 43.2617C25.704 44.496 26.2697 45.5863 27.0309 46.4297C28.224 47.7463 29.808 48.3737 31.536 48.2091C36.0514 47.7874 42.048 42.1817 44.6606 27.9154C47.2834 27.4629 49.6903 26.9486 51.912 26.3829L49.9474 36.5143C36.5657 44.9794 33.7577 57.0549 33.3977 58.8754C31.8651 66.7543 35.28 71.1463 39.096 71.8869C39.4457 71.9589 39.7954 71.9897 40.1451 72H40.5463C45 71.8663 49.9474 67.248 52.0251 56.5406L55.1931 40.2583C59.8423 37.6971 65.304 35.9177 71.5269 34.9303C72.9257 34.704 73.9337 33.5314 73.9954 32.1737V31.896C73.9852 31.6389 73.9337 31.3714 73.8514 31.104C73.3989 29.7154 71.9074 28.9234 70.4674 29.16C65.1189 30.0137 60.5314 31.3714 56.6023 33.048L58.2789 24.408C66.4457 21.2914 70.7863 16.9406 71.9486 10.9851C73.3166 3.90857 70.3954 0.730286 67.1966 0.102857C66.888 0.0411429 66.5589 0.0102857 66.2297 0H65.8389Z" fill="white"/>
</g>
</mask>
<g mask="url(#mask0_754_1513)">
<g id="Group_4">
<path id="Vector_3" d="M73.9954 0H0V72H73.9954V0Z" fill="#00D2D2"/>
</g>
</g>
</g>
</g>
</g>
<g id="Group_5">
<path id="Vector_4" d="M59.6572 46.9445C59.6572 48.8885 61.2309 50.4622 63.1749 50.4622C65.1189 50.4622 66.6927 48.8885 66.6927 46.9445C66.6927 45.0005 65.1189 43.4268 63.1749 43.4268C61.2309 43.4268 59.6572 45.0005 59.6572 46.9445Z" fill="#00D2D2"/>
<g id="Group_6">
<path id="Vector_5" d="M59.6572 46.9445C59.6572 48.8885 61.2309 50.4622 63.1749 50.4622C65.1189 50.4622 66.6927 48.8885 66.6927 46.9445C66.6927 45.0005 65.1189 43.4268 63.1749 43.4268C61.2309 43.4268 59.6572 45.0005 59.6572 46.9445Z" fill="#00D2D2"/>
<g id="Clip path group_2">
<mask id="mask1_754_1513" style="mask-type:luminance" maskUnits="userSpaceOnUse" x="59" y="43" width="8" height="8">
<g id="SVGID_00000133497279605455012570000009432017545052307855_">
<path id="Vector_6" d="M59.657 46.9445C59.657 48.8885 61.2307 50.4622 63.1747 50.4622C65.1187 50.4622 66.6924 48.8885 66.6924 46.9445C66.6924 45.0005 65.1187 43.4268 63.1747 43.4268C61.2307 43.4268 59.657 45.0005 59.657 46.9445Z" fill="white"/>
</g>
</mask>
<g mask="url(#mask1_754_1513)">
<g id="Group_7">
<path id="Vector_7" d="M66.7027 43.4268H59.657V50.4725H66.7027V43.4268Z" fill="#00D2D2"/>
</g>
</g>
</g>
</g>
</g>
</g>
</g>
</g>
</g>
<defs>
<clipPath id="clip0_754_1513">
<rect width="1440" height="5604" fill="white" transform="translate(-337 -5210)"/>
</clipPath>
</defs>
</svg>
