<svg width="26" height="22" viewBox="0 0 26 22" fill="none" xmlns="http://www.w3.org/2000/svg">
<g id="icon">
<path id="Vector" d="M0.650398 12.3049C0.663085 13.026 1.11963 13.6325 1.75048 13.8746C1.95475 13.953 2.18132 13.9913 2.41584 13.9909L19.8918 13.4667C19.6208 13.8495 19.3498 14.2323 19.0811 14.609C18.8277 14.9638 18.5743 15.3185 18.321 15.6733C17.7659 16.4548 17.9429 17.538 18.7137 18.0982C18.8319 18.1853 18.9631 18.2565 19.1013 18.3095C19.8162 18.584 20.6512 18.3482 21.125 17.6886C21.3701 17.3375 21.6234 16.9828 21.8805 16.6363C22.4592 15.8292 23.0555 14.9941 23.6338 14.152C24.9328 12.2584 24.5843 10.1495 22.7626 8.78956C21.9531 8.18674 21.1246 7.59749 20.3238 7.02583C19.9705 6.77894 19.6255 6.5283 19.2746 6.27535C18.5015 5.72128 17.4242 5.90584 16.8692 6.68727C16.3119 7.47477 16.4912 8.55199 17.2619 9.11212C17.6129 9.36507 17.9699 9.62033 18.3208 9.87328C18.4017 9.93212 18.4848 9.98489 18.5633 10.0498L2.33359 10.5239C1.37786 10.5534 0.63038 11.3514 0.650398 12.3049Z" fill="#00D2D2"/>
</g>
</svg>
